<?xml version="1.0" encoding="iso-8859-1"?>
<!-- Uploaded to: SVG Repo, www.svgrepo.com, Generator: SVG Repo Mixer Tools -->
<!DOCTYPE svg PUBLIC "-//W3C//DTD SVG 1.1//EN" "http://www.w3.org/Graphics/SVG/1.1/DTD/svg11.dtd">
<svg version="1.1" id="Capa_1" xmlns="http://www.w3.org/2000/svg" xmlns:xlink="http://www.w3.org/1999/xlink" 
	 viewBox="0 0 413.016 413.016" xml:space="preserve">
<g>
	<circle style="fill:#5FB7CE;" cx="135.381" cy="48.519" r="48.519"/>
	<path style="fill:#FFFFFF;" d="M169.9,52.519c-2.209,0-4-1.791-4-4C165.9,31.69,152.209,18,135.381,18c-2.209,0-4-1.791-4-4
		s1.791-4,4-4C156.62,10,173.9,27.279,173.9,48.519C173.9,50.728,172.109,52.519,169.9,52.519z"/>
	<polygon style="fill:#F9E575;" points="162.799,140.829 384.2,220.504 307.014,304.428 142.99,171.638 	"/>
	<polygon style="fill:#F9E575;" points="144.267,148.432 247.267,13.074 288.376,84.512 161.209,168.778 	"/>
	<path style="fill:#6BC0DD;" d="M173.678,134.933H97.083c-16.403,0-29.7-13.297-29.7-29.7v0c0-16.403,13.297-29.7,29.7-29.7h76.595
		c16.403,0,29.7,13.297,29.7,29.7v0C203.378,121.636,190.081,134.933,173.678,134.933z"/>
	<path style="fill:#FFFFFF;" d="M189.378,109.232c-2.209,0-4-1.791-4-4c0-6.451-5.249-11.7-11.7-11.7h-36.536c-2.209,0-4-1.791-4-4
		s1.791-4,4-4h36.536c10.863,0,19.7,8.837,19.7,19.7C193.378,107.441,191.587,109.232,189.378,109.232z"/>
	<path style="fill:#FFFFFF;" d="M117.808,93.533H97.083c-2.209,0-4-1.791-4-4s1.791-4,4-4h20.725c2.209,0,4,1.791,4,4
		S120.017,93.533,117.808,93.533z"/>
	<rect x="92.161" y="134.932" style="fill:#6BC0DD;" width="86.43" height="75.16"/>
	<path style="fill:#5BAEC4;" d="M178.591,134.932v14.89c-1.59,0.27-3.24,0.41-4.91,0.41h-76.6c-1.68,0-3.32-0.14-4.92-0.41v-14.89
		H178.591z"/>
	<path style="fill:#6BC0DD;" d="M194.348,413.016H76.413c-28.428,0-50.515-24.76-47.282-53.003l15.898-138.886
		c3.171-27.7,26.617-48.616,54.498-48.616h71.708c27.881,0,51.327,20.915,54.498,48.616l15.898,138.886
		C244.863,388.256,222.776,413.016,194.348,413.016z"/>
	<path style="fill:#509BAD;" d="M212.701,381.792c-4.73,5.3-11.25,8.22-18.35,8.22H76.411c-7.1,0-13.62-2.92-18.35-8.22
		c-4.73-5.3-6.89-12.11-6.08-19.16l11.2-97.85l4.7-41.04c1.84-16.09,15.45-28.23,31.65-28.23h71.7c16.2,0,29.81,12.14,31.65,28.23
		l4.7,41.04l11.2,97.85C219.591,369.682,217.431,376.492,212.701,381.792z"/>
	<path style="fill:#5FB7CE;" d="M207.581,264.782h-144.4l4.7-41.04c1.84-16.09,15.45-28.23,31.65-28.23h71.7
		c16.2,0,29.81,12.14,31.65,28.23L207.581,264.782z"/>
	<path style="fill:#FFFFFF;" d="M213.871,323.778c-2.006,0-3.736-1.505-3.969-3.545l-1.082-9.453
		c-0.251-2.195,1.324-4.178,3.519-4.429c2.198-0.255,4.178,1.324,4.429,3.519l1.082,9.453c0.251,2.195-1.324,4.178-3.519,4.429
		C214.177,323.77,214.023,323.778,213.871,323.778z"/>
	<path style="fill:#FFFFFF;" d="M210.448,293.864c-2.006,0-3.736-1.505-3.969-3.545l-7.571-66.122
		c-1.609-14.073-13.507-24.685-27.676-24.685c-2.209,0-4-1.791-4-4s1.791-4,4-4c18.238,0,33.553,13.661,35.624,31.775l7.571,66.122
		c0.251,2.195-1.324,4.178-3.519,4.429C210.753,293.855,210.599,293.864,210.448,293.864z"/>
	<rect x="92.161" y="154.452" style="fill:#E2CB69;" width="86.43" height="18.55"/>
</g>
</svg>